<svg xmlns="http://www.w3.org/2000/svg" width="4150" height="370"><path d="M-1055.074 513.748h5268.628s-2.772-391.807-2.772-502.555C3881.654 2.348 4062.848 177.6 3744.919 197 3416.4 217.043 3196.572 84.3 2867.444 84.3c-329.112 0-289.388 112.846-618.5 112.846S1870.751 7.5 1541.636 7.5s-295.153 148.894-624.264 148.894C453 156.394 370.347 5.709 0 11.969c-217.184 3.672-140.651 183.987-333.236 183.987-329.113 0-392.725-183.754-721.838-183.754z" opacity=".05" fill="#3e3ced"/><path d="M-453.758 855.5H5111.8s-2.772-489.694-2.772-716.437c-329.1 0-328.71 90.867-657.813 90.867s-251.894-55.424-581-55.424c-329.088 0-334.944 45.452-664.032 45.452s-368.037-111.341-697.129-111.279c-330.677.063-394.387 148.44-715.069 148.111-329.082-.339-266.425-90.12-595.508-90.12S739.848 272.446 412.426 305.541c-309.59 31.292-149.519-147.949-866.184-138.136z" fill="#4146ef" opacity=".05"/><path d="M4958.617 787.865h-6927.142V108.679c432.716 0 1000.22 40.721 1430.025 90.821 203.75 23.75 302.828 6.091 586.541-67.9C466.744 22.408 372.05 255.19 738 300c196 24 332.289-164.283 765-164.283s611.239 93.254 1043.957 93.254 387.685-69.243 641.493-78.365 336.123 62.57 595.508 58.774 367.425-89.731 515.034-89.624c432.733.315 223.246-11.077 655.98-11.077 0 215.309 3.645 679.186 3.645 679.186z" fill="#509af9" opacity=".05"/><path d="M-1080.617 749.336h6927.142V70.15c-432.715 0-432.715 119.15-865.425 119.15S4548.378 67.086 4115.662 67.086s-206.7 126.491-639.41 126.491-567.467-96.39-1000.178-96.39-712.313 93.255-1145.031 93.255c-295.353 0-408.612-179.7-641.493-78.365C323.1 271.528 262.971 70.524 3.586 66.728S-273.383 88.46-420.992 88.567c-432.733.314-223.246-18.417-655.98-18.417 0 215.309-3.645 679.186-3.645 679.186z" fill="#4f96f9" opacity=".05"/></svg>