<svg xmlns="http://www.w3.org/2000/svg" width="64" height="64"><path d="M63.3 45.4c.8 1.1.6 2.5-.3 3.3-1.1.8-2.7.6-3.5-.3l-5.6-7.2-5.4 7c-.8 1.1-2.4 1.1-3.5.3s-1.3-2.2-.5-3.3l6.4-8.3-6.4-8.3c-.8-1.1-.5-2.7.5-3.5 1.1-.8 2.7-.5 3.5.5l5.4 7.2 5.6-6.8c.8-1.1 2.2-1.3 3.5-.5 1.1.8 1.1 2.4.3 3.5l-6.2 8.1 6.2 8.3zm-29-1c-4.1 0-7.5-3.2-7.5-7.3 0-4 3.3-7.3 7.5-7.3s7.5 3.3 7.5 7.3c-.1 4.1-3.5 7.3-7.5 7.3zm-21.9 0c-4.1 0-7.5-3.2-7.5-7.3 0-4 3.3-7.3 7.5-7.3s7.5 3.3 7.5 7.3c0 4.1-3.4 7.3-7.5 7.3zM34.3 25c-4.6 0-8.8 2.5-10.8 6.4-2.1-3.8-6.2-6.4-11-6.4-2.9 0-5.4 1-7.5 2.4V17.2c0-1.3-1.1-2.4-2.4-2.4-1.4 0-2.5 1.1-2.5 2.4v20.1C.3 44 5.7 49.2 12.4 49.2c4.8 0 8.9-2.7 11-6.5 2.1 3.8 6.2 6.5 10.8 6.5 6.8 0 12.4-5.4 12.4-12.3.2-6.5-5.4-11.9-12.3-11.9z" fill="#0071f7"/></svg>