<svg xmlns="http://www.w3.org/2000/svg" width="64" height="64"><path d="M18.1 21.8c2.7 0 5.4.3 8.1.8 2.5.5 5.1 1.3 7.6 1.3 2 0 3.6-1.4 3.6-3.1 0-1.7-1.6-3-3.6-3-1.1 0-2.3.2-3.4.6l.9-.6c3.9-2.3 8.5-3.4 13-3.1 4.9.2 9.9 1.7 13.7 4.9 4.4 3.8 6.6 9.7 5.7 15.4-1 5.9-5 10.8-10.5 13.1-4 1.4-8.4 1.6-12.5.5-5.4-1.4-10.1-4.4-15.1-6.5-3-1.1-6-1.9-9.2-2.3 1.2.1 2.4-.1 3.6-.6 1.5-.7 1.5-2.5.7-3.7-.9-1.5-2.8-2.1-4.4-2.6-2.8-.7-5.8-.9-8.6-.4-2.1.2-4.2.9-5.9 2.1C1 35 .5 35.7.1 36.5c2.7-7.4 8-6.6 11.2-8.6.9-.6 1.1-1.7.5-2.6-.4-.6-1.1-.9-1.9-.8-.9.2-1.8.7-2.5 1.3-.3.2-.5.4-.7.6 0-.1 2.7-4.6 11.4-4.6z" fill="#07f"/><path d="M55.5 31.4c.8 3.7-1.6 7.4-5.4 8.2-6.9 1.4-14.7-4.3-20.8-7.1 10.3.6 13.2-5.5 18-6.5 3.8-.7 7.5 1.7 8.2 5.4z" fill="#fff"/></svg>