<svg xmlns="http://www.w3.org/2000/svg" width="64" height="64"><path d="M20.8 50.7c-3.9-1-6-4-6-8.6 0-1.5.1-2.2.5-3.1.9-2.3 3.3-4 6.4-4.7 1.5-.3 2-.7 2-1.4 0-.2.2-1 .4-1.6 1-3 2.9-5.4 4.9-6.5 2.1-1.1 3.2-1.3 5.7-1.3 3.6 0 5.4.8 8 3.5l1.4 1.5 1.2-.4c6-2.1 12.1 1.5 12.6 7.4L58 37l1.2.4c3.4 1.2 5 3.8 4.7 7.5-.2 2.5-1.3 4.4-3.2 5.4l-.9.5h-19c-14.6.1-19.2.1-20-.1zM6.5 48c-2.3-.5-4.6-2.5-5.8-4.8-.6-1.3-.7-1.5-.7-3.8 0-2.2.1-2.5.6-3.6 1.1-2.3 3.1-3.9 5.7-4.6.5-.1 1.1-.4 1.1-.5.1-.1.2-.8.2-1.6.2-4.6 3.2-8.6 7.3-9.9 2.3-.7 5.1-.5 7.5.5.8.3.7.4 2.3-1.8 1-1.3 2.9-2.9 4.5-3.7 1.7-.9 3.5-1.3 5.7-1.3 6 0 11.2 3.8 13.2 9.6.6 1.8.6 2.4-.1 2.4-.3 0-1.2.2-2 .4l-1.4.4-1.3-1.3c-3.7-3.7-9.7-4.5-14.9-2-2.1 1-3.7 2.5-4.9 4.4-.9 1.3-2 3.9-2 4.5 0 .4-.4.7-1.9 1.2-4.7 1.6-7.5 5.2-7.5 9.8 0 1.7.4 3.7 1 4.9.2.4.4.9.3.9-.2.2-6.1.1-6.9-.1z" fill="#094ab1"/></svg>