<svg xmlns="http://www.w3.org/2000/svg" width="90" height="90"><path d="M75 13H15a3 3 0 0 0-3 3v74h66V16a3 3 0 0 0-3-3z" fill="#eeeef1"/><path d="M12 54.97V90h66V42.03z" fill="#fff"/><path d="M64 14v4.683l-6 1.148v-4.964L62.535 14H64m0 7.719v4.964l-6 1.148v-4.964l6-1.148m0 8v4.964l-6 1.148v-4.964l6-1.148m0 8v4.964l-6 1.148v-4.964l6-1.148M65 13h-2.56L57 14.04v7l8-1.53V13zm0 7.51l-8 1.53v7l8-1.53v-7zm0 8l-8 1.53v7l8-1.53v-7zm0 8l-8 1.53v7l8-1.53v-7z" opacity=".5" fill="#bec0c8"/><path d="M18 38v1h25v-1zm0-3v1h25v-1zm0-3v1h10v-1zm3-15a3 3 0 1 0 3 3 3 3 0 0 0-3-3zm0 5a2 2 0 1 1 2-2 2.006 2.006 0 0 1-2 2zm26 44v1h25v-1zm0-3v1h25v-1zm23.5-6h-11a1.5 1.5 0 0 0 0 3h11a1.5 1.5 0 0 0 0-3zm0 2h-11a.5.5 0 0 1 0-1h11a.5.5 0 0 1 0 1zM18 38v1h25v-1zm0-3v1h25v-1zm0-3v1h10v-1zm3-15a3 3 0 1 0 3 3 3 3 0 0 0-3-3zm0 5a2 2 0 1 1 2-2 2.006 2.006 0 0 1-2 2zm26 44v1h25v-1zm0-3v1h25v-1zm23.5-6h-11a1.5 1.5 0 0 0 0 3h11a1.5 1.5 0 0 0 0-3zm0 2h-11a.5.5 0 0 1 0-1h11a.5.5 0 0 1 0 1zM21 17a3 3 0 1 0 3 3 3 3 0 0 0-3-3zm0 5a2 2 0 1 1 2-2 2.006 2.006 0 0 1-2 2zm-3 10v1h10v-1zm0 3v1h25v-1zm0 3v1h25v-1zm52.5 19h-11a1.5 1.5 0 0 0 0 3h11a1.5 1.5 0 0 0 0-3zm0 2h-11a.5.5 0 0 1 0-1h11a.5.5 0 0 1 0 1zM47 63v1h25v-1zm0 3v1h25v-1zM18 39h25v-1H18zm0-4v1h25v-1zm10-3H18v1h10zm-7-9a3 3 0 1 0-3-3 3 3 0 0 0 3 3zm0-5a2 2 0 1 1-2 2 2.006 2.006 0 0 1 2-2zm54-5H15a3 3 0 0 0-3 3v74h1V55.79l64-12.54V90h1V16a3 3 0 0 0-3-3zm2 29.23L13 54.77V16a2.006 2.006 0 0 1 2-2h60a2.006 2.006 0 0 1 2 2zM47 67h25v-1H47zm0-3h25v-1H47zm23.5-7h-11a1.5 1.5 0 0 0 0 3h11a1.5 1.5 0 0 0 0-3zm0 2h-11a.5.5 0 0 1 0-1h11a.5.5 0 0 1 0 1zM18 39h25v-1H18zm0-3h25v-1H18zm10-4H18v1h10zm-7-9a3 3 0 1 0-3-3 3 3 0 0 0 3 3zm0-5a2 2 0 1 1-2 2 2.006 2.006 0 0 1 2-2zm0-1a3 3 0 1 0 3 3 3 3 0 0 0-3-3zm0 5a2 2 0 1 1 2-2 2.006 2.006 0 0 1-2 2zm-3 10v1h10v-1zm0 3v1h25v-1zm0 3v1h25v-1zm52.5 19h-11a1.5 1.5 0 0 0 0 3h11a1.5 1.5 0 0 0 0-3zm0 2h-11a.5.5 0 0 1 0-1h11a.5.5 0 0 1 0 1zM47 63v1h25v-1zm0 3v1h25v-1zm0 0v1h25v-1zm0-3v1h25v-1zm23.5-6h-11a1.5 1.5 0 0 0 0 3h11a1.5 1.5 0 0 0 0-3zm0 2h-11a.5.5 0 0 1 0-1h11a.5.5 0 0 1 0 1zM18 38v1h25v-1zm0-3v1h25v-1zm0-3v1h10v-1zm3-15a3 3 0 1 0 3 3 3 3 0 0 0-3-3zm0 5a2 2 0 1 1 2-2 2.006 2.006 0 0 1-2 2z" opacity=".6" fill="#bec0c8"/></svg>