<svg xmlns="http://www.w3.org/2000/svg" width="100" height="100"><defs><style>.e{opacity:.14}</style><linearGradient id="a" x1="1" y1="50" x2="99" y2="50" gradientUnits="userSpaceOnUse"><stop offset="0" stop-color="#e0f5f4"/><stop offset="1" stop-color="#e0f8ee"/></linearGradient><linearGradient id="b" x1="23" y1="50" x2="77" y2="50" gradientUnits="userSpaceOnUse"><stop offset="0" stop-color="#3ec3ba"/><stop offset="1" stop-color="#3ed693"/></linearGradient><linearGradient id="c" x1="50.5" y1="59" x2="50.5" y2="32" gradientUnits="userSpaceOnUse"><stop offset="0" stop-color="#fff" stop-opacity=".8"/><stop offset="1" stop-color="#fff" stop-opacity=".7"/></linearGradient></defs><circle cx="50" cy="50" r="49" fill="url(#a)"/><circle cx="50" cy="52" r="27" fill="#231f20" opacity=".08"/><circle cx="50" cy="50" r="27" fill="url(#b)"/><path d="M50 24a26 26 0 1 1-26 26 26.03 26.03 0 0 1 26-26m0-1a27 27 0 1 0 27 27 27 27 0 0 0-27-27z" opacity=".05"/><rect class="e" x="37" y="63" width="27" height="3" rx="1.5"/><rect x="37" y="62" width="27" height="3" rx="1.5" fill="#fff" opacity=".9"/><path class="e" d="M58 58.5a1.5 1.5 0 1 1-1.5-1.5 1.5 1.5 0 0 1 1.5 1.5zM50.5 57a1.5 1.5 0 1 0 1.5 1.5 1.5 1.5 0 0 0-1.5-1.5zm-6 0a1.5 1.5 0 1 0 1.5 1.5 1.5 1.5 0 0 0-1.5-1.5zm12-6a1.5 1.5 0 1 0 1.5 1.5 1.5 1.5 0 0 0-1.5-1.5zm-6 0a1.5 1.5 0 1 0 1.5 1.5 1.5 1.5 0 0 0-1.5-1.5zm6-6a1.5 1.5 0 1 0 1.5 1.5 1.5 1.5 0 0 0-1.5-1.5zm-6 0a1.5 1.5 0 1 0 1.5 1.5 1.5 1.5 0 0 0-1.5-1.5zm0-6a1.5 1.5 0 1 0 1.5 1.5 1.5 1.5 0 0 0-1.5-1.5zm0-6a1.5 1.5 0 1 0 1.5 1.5 1.5 1.5 0 0 0-1.5-1.5zm-6 18a1.5 1.5 0 1 0 1.5 1.5 1.5 1.5 0 0 0-1.5-1.5z"/><path d="M58 57.5a1.5 1.5 0 1 1-1.5-1.5 1.5 1.5 0 0 1 1.5 1.5zM50.5 56a1.5 1.5 0 1 0 1.5 1.5 1.5 1.5 0 0 0-1.5-1.5zm-6 0a1.5 1.5 0 1 0 1.5 1.5 1.5 1.5 0 0 0-1.5-1.5zm12-6a1.5 1.5 0 1 0 1.5 1.5 1.5 1.5 0 0 0-1.5-1.5zm-6 0a1.5 1.5 0 1 0 1.5 1.5 1.5 1.5 0 0 0-1.5-1.5zm6-6a1.5 1.5 0 1 0 1.5 1.5 1.5 1.5 0 0 0-1.5-1.5zm-6 0a1.5 1.5 0 1 0 1.5 1.5 1.5 1.5 0 0 0-1.5-1.5zm0-6a1.5 1.5 0 1 0 1.5 1.5 1.5 1.5 0 0 0-1.5-1.5zm0-6a1.5 1.5 0 1 0 1.5 1.5 1.5 1.5 0 0 0-1.5-1.5zm-6 18a1.5 1.5 0 1 0 1.5 1.5 1.5 1.5 0 0 0-1.5-1.5z" fill="url(#c)"/></svg>