<svg xmlns="http://www.w3.org/2000/svg" xmlns:xlink="http://www.w3.org/1999/xlink" width="100" height="100"><defs><linearGradient id="b" x1="1" y1="50" x2="99" y2="50" gradientUnits="userSpaceOnUse"><stop offset="0" stop-color="#fff5e1"/><stop offset="1" stop-color="#fff2de"/></linearGradient><linearGradient id="a" x1="28" y1="52" x2="72" y2="52" gradientUnits="userSpaceOnUse"><stop offset="0" stop-color="#fdd274"/><stop offset="1" stop-color="#fdc267"/></linearGradient><linearGradient id="c" x1="35" y1="33.5" x2="65" y2="33.5" xlink:href="#a"/></defs><circle cx="50" cy="50" r="49" fill="url(#b)"/><path d="M67 71H33a5 5 0 0 1-5-5V42a5 5 0 0 1 5-5h1v3h-2v1h35a5 5 0 0 1 5 5v20a5 5 0 0 1-5 5z" opacity=".05" fill-rule="evenodd" fill="#231f20"/><path d="M67 69H33a5 5 0 0 1-5-5V40a5 5 0 0 1 5-5h1v3h-2v1h35a5 5 0 0 1 5 5v20a5 5 0 0 1-5 5z" fill="url(#a)" fill-rule="evenodd"/><path d="M33 36v1h-2v3h36a4 4 0 0 1 4 4v20a4 4 0 0 1-4 4H33a4 4 0 0 1-4-4V40a4 4 0 0 1 4-4m1-1h-1a5 5 0 0 0-5 5v24a5 5 0 0 0 5 5h34a5 5 0 0 0 5-5V44a5 5 0 0 0-5-5H32v-1h2v-3z" opacity=".05"/><path opacity=".6" fill="url(#c)" d="M35 29h30v9H35z"/><path d="M64 30v7H36v-7h28m1-1H35v9h30v-9z" opacity=".03"/><circle cx="63" cy="55" r="3" opacity=".14"/><circle cx="63" cy="54" r="3" fill="#fff" opacity=".9"/></svg>