<svg xmlns="http://www.w3.org/2000/svg" width="100" height="100"><defs><linearGradient id="a" x1="1" y1="50" x2="99" y2="50" gradientUnits="userSpaceOnUse"><stop offset="0" stop-color="#eee9f7"/><stop offset="1" stop-color="#edebf9"/></linearGradient><linearGradient id="b" x1="26" y1="50" x2="74" y2="50" gradientUnits="userSpaceOnUse"><stop offset="0" stop-color="#9777d1"/><stop offset="1" stop-color="#9086db"/></linearGradient></defs><circle cx="50" cy="50" r="49" fill="url(#a)"/><circle cx="86.5" cy="49.5" r="1.5" opacity=".2" fill="#9086db"/><circle cx="78.5" cy="49.5" r="1.5" opacity=".4" fill="#9086db"/><circle cx="21.5" cy="49.5" r="1.5" fill="#9777d1" opacity=".4"/><circle cx="13.5" cy="49.5" r="1.5" fill="#9777d1" opacity=".2"/><rect x="28" y="30" width="44" height="44" rx="6" fill="#231f20" opacity=".08"/><path d="M74 49.5a1.5 1.5 0 0 1-1.5 1.5 1.386 1.386 0 0 1-.5-.09V66a6 6 0 0 1-6 6H34a6 6 0 0 1-6-6V50.91a1.386 1.386 0 0 1-.5.09 1.5 1.5 0 0 1 0-3 1.386 1.386 0 0 1 .5.09V34a6 6 0 0 1 6-6h32a6 6 0 0 1 6 6v14.09a1.386 1.386 0 0 1 .5-.09 1.5 1.5 0 0 1 1.5 1.5z" fill="url(#b)"/><path d="M66 29a5.006 5.006 0 0 1 5 5v32a5.006 5.006 0 0 1-5 5H34a5.006 5.006 0 0 1-5-5V34a5.006 5.006 0 0 1 5-5h32m0-1H34a6 6 0 0 0-6 6v14.09a1.386 1.386 0 0 0-.5-.09 1.5 1.5 0 0 0 0 3 1.386 1.386 0 0 0 .5-.09V66a6 6 0 0 0 6 6h32a6 6 0 0 0 6-6V50.91a1.386 1.386 0 0 0 .5.09 1.5 1.5 0 0 0 0-3 1.386 1.386 0 0 0-.5.09V34a6 6 0 0 0-6-6z" opacity=".05"/><path d="M39 55h9.91l-3.62-3.61a1.008 1.008 0 0 1 0-1.42 1.014 1.014 0 0 1 1.42 0l3.9 3.9a3.03 3.03 0 0 1 0 4.25l-3.9 3.91a1 1 0 0 1-1.42-1.42L48.9 57H39zm22-10h-9.9l3.61-3.61a1 1 0 0 0-1.42-1.42l-3.9 3.91a3.03 3.03 0 0 0 0 4.25l3.9 3.9a1.014 1.014 0 0 0 1.42 0 1.008 1.008 0 0 0 0-1.42L51.09 47H61z" opacity=".14"/><path d="M39 54h9.91l-3.62-3.61a1.008 1.008 0 0 1 0-1.42 1.014 1.014 0 0 1 1.42 0l3.9 3.9a3.03 3.03 0 0 1 0 4.25l-3.9 3.91a1 1 0 0 1-1.42-1.42L48.9 56H39z" fill="#fff" opacity=".9"/><path d="M61 46h-9.91l3.62 3.61a1.008 1.008 0 0 1 0 1.42 1.014 1.014 0 0 1-1.42 0l-3.9-3.9a3.03 3.03 0 0 1 0-4.25l3.9-3.91a1 1 0 0 1 1.42 1.42L51.1 44H61z" fill="#d2b9f1"/></svg>