<svg xmlns="http://www.w3.org/2000/svg" width="64" height="64"><path d="M47.313 28.308H35.847l1.319-4.923h14.4L53.544 16H12.056c-1.628 0-2.288 2.461-.66 2.461h22.056c1.627 0 .968 2.462-.66 2.462h-8.657c-1.628 0-2.288 2.461-.66 2.461h3.2c1.629 0 .969 2.461-.659 2.461h-8.105c-1.627 0-2.287 2.462-.659 2.462h8.106c1.628 0 .969 2.461-.659 2.461h-2.707c-1.629 0-2.288 2.462-.66 2.462h4.509c1.628 0 .968 2.461-.66 2.461h-1.8c-1.534 5.728-2 7.463-3.3 12.307h10.49l3.275-12.225h11.466l2-7.466z" fill-rule="evenodd"/></svg>