<svg xmlns="http://www.w3.org/2000/svg" width="80" height="80"><path d="M40 30a10 10 0 1 1-10 10 10 10 0 0 1 10-10m0-2a12 12 0 1 0 12 12 12.013 12.013 0 0 0-12-12zm0 16.364A4.364 4.364 0 0 1 35.636 40a4.291 4.291 0 0 1 .509-2.036L35.084 36.9a5.759 5.759 0 0 0-.9 3.1A5.818 5.818 0 0 0 40 45.818V48l2.909-2.909L40 42.182m0-8V32l-2.909 2.909L40 37.818v-2.182A4.364 4.364 0 0 1 44.364 40a4.291 4.291 0 0 1-.509 2.036l1.061 1.064a5.759 5.759 0 0 0 .9-3.1A5.818 5.818 0 0 0 40 34.182zM25 39a1 1 0 1 0 1 1 1 1 0 0 0-1-1zm-4 0a1 1 0 1 0 1 1 1 1 0 0 0-1-1zm-4 0a1 1 0 1 0 1 1 1 1 0 0 0-1-1zm-4 0a1 1 0 1 0 1 1 1 1 0 0 0-1-1zm54 0a1 1 0 1 0 1 1 1 1 0 0 0-1-1zm-4 0a1 1 0 1 0 1 1 1 1 0 0 0-1-1zm-4 0a1 1 0 1 0 1 1 1 1 0 0 0-1-1zm-4 0a1 1 0 1 0 1 1 1 1 0 0 0-1-1zM6.5 37.5A2.5 2.5 0 1 0 9 40a2.5 2.5 0 0 0-2.5-2.5zM71 43.854L74.853 40 71 36.146z" fill="#d4d5da"/></svg>