<svg xmlns="http://www.w3.org/2000/svg" width="102" height="80"><defs><linearGradient id="a" x1="51" y1="80" x2="51" y2="6" gradientUnits="userSpaceOnUse"><stop offset="0" stop-color="#0064db"/><stop offset="1" stop-color="#0071f7"/></linearGradient></defs><path d="M38 0H12a4 4 0 0 0-4 4v2h34V4a4 4 0 0 0-4-4z" fill="#0246b3" fill-rule="evenodd"/><path d="M4 6h94a4 4 0 0 1 4 4v66a4 4 0 0 1-4 4H4a4 4 0 0 1-4-4V10a4 4 0 0 1 4-4z" fill="url(#a)"/><path d="M72.609 49.246a1.689 1.689 0 0 1-.207 2.277 1.872 1.872 0 0 1-2.415-.207l-3.864-4.968-3.723 4.83a1.727 1.727 0 0 1-2.415.207 1.581 1.581 0 0 1-.345-2.277l4.416-5.727-4.416-5.727a1.725 1.725 0 1 1 2.76-2.07l3.726 4.968 3.864-4.692a1.673 1.673 0 1 1 2.622 2.07l-4.278 5.589zm-20.009-.69a5.039 5.039 0 1 1 5.176-5.037 5.185 5.185 0 0 1-5.176 5.037zm-15.111 0a5.039 5.039 0 1 1 5.175-5.037 5.1 5.1 0 0 1-5.177 5.037zM52.6 35.17a8.348 8.348 0 0 0-7.452 4.416 8.62 8.62 0 0 0-7.59-4.416 9.238 9.238 0 0 0-5.175 1.656v-7.039a1.691 1.691 0 0 0-3.381 0v13.87a8.424 8.424 0 0 0 8.487 8.211 8.681 8.681 0 0 0 7.59-4.485 8.628 8.628 0 0 0 7.452 4.485 8.5 8.5 0 0 0 8.557-8.487A8.251 8.251 0 0 0 52.6 35.17z" fill="#fff"/></svg>