<svg xmlns="http://www.w3.org/2000/svg" xmlns:xlink="http://www.w3.org/1999/xlink" width="64" height="64"><defs><linearGradient id="a" x1="32" y1="38.49" x2="32" y2="23.49" gradientUnits="userSpaceOnUse"><stop offset="0" stop-color="#956ac8"/><stop offset="1" stop-color="#e9738a"/></linearGradient><linearGradient id="b" y1="56" y2="8" xlink:href="#a"/></defs><path d="M39 23.49v7.073a2.217 2.217 0 0 1-.648 1.566L32 38.49l-6.352-6.361A2.217 2.217 0 0 1 25 30.563V23.49l7 7z" opacity=".2" fill="url(#a)" fill-rule="evenodd"/><path d="M32 56a24 24 0 1 1 24-24 24 24 0 0 1-24 24zm0-46a22 22 0 1 0 22 22 22 22 0 0 0-22-22zm11 32H21a1 1 0 0 1 0-2h22a1 1 0 0 1 0 2zM25.636 30.707a1 1 0 0 1 1.414 0l3.95 3.95V18a1 1 0 0 1 2 0v16.657l3.95-3.95a1 1 0 0 1 1.414 0 1 1 0 0 1 0 1.414L32 38.485l-6.364-6.364a1 1 0 0 1 0-1.414z" fill="url(#b)" fill-rule="evenodd"/></svg>