<svg xmlns="http://www.w3.org/2000/svg" width="102" height="80"><defs><linearGradient id="a" x1="51" y1="80" x2="51" y2="6" gradientUnits="userSpaceOnUse"><stop offset="0" stop-color="#0161ff"/><stop offset="1" stop-color="#1f74ff"/></linearGradient></defs><path d="M38 0H12a4 4 0 0 0-4 4v2h34V4a4 4 0 0 0-4-4z" fill="#0246b3" fill-rule="evenodd"/><path d="M4 6h94a4 4 0 0 1 4 4v66a4 4 0 0 1-4 4H4a4 4 0 0 1-4-4V10a4 4 0 0 1 4-4z" fill="url(#a)"/><path d="M51.019 35.1l-7.459 4.754 7.459 4.759-7.459 4.759-7.46-4.785 7.46-4.759L36.1 35.1l7.46-4.758zm-7.498 15.8l7.46-4.759L58.44 50.9l-7.459 4.759zm7.5-6.315l7.46-4.759-7.462-4.726 7.421-4.758L65.9 35.1l-7.46 4.759 7.46 4.759-7.46 4.759z" fill="#fff"/></svg>