<svg xmlns="http://www.w3.org/2000/svg" xmlns:xlink="http://www.w3.org/1999/xlink" width="64" height="64"><defs><style>.c{fill:#be6fa9;opacity:.6}.d{fill:#ea7389;opacity:.23}</style><linearGradient id="a" x1="32" y1="56" x2="32" y2="8" gradientUnits="userSpaceOnUse"><stop offset="0" stop-color="#956ac8"/><stop offset="1" stop-color="#e9738a"/></linearGradient><linearGradient id="b" x1="35" y1="44" x2="35" y2="16" xlink:href="#a"/></defs><path d="M33 46v4.184A2.987 2.987 0 0 1 34.816 52H48v2H34.816a2.982 2.982 0 0 1-5.632 0H16v-2h13.184A2.987 2.987 0 0 1 31 50.184V46H20v-6h-6V8h30v6h6v32zm9-36H16v28h26zm6 6h-4v24H22v4h26z" fill="url(#a)"/><path opacity=".2" fill="url(#b)" d="M48 16h-4v24H22v4h26V16z"/><path class="c" d="M50 52h2v2h-2z"/><path class="d" d="M54 52h2v2h-2zM8 52h2v2H8z"/><path class="c" d="M12 52h2v2h-2z"/></svg>