<svg xmlns="http://www.w3.org/2000/svg" width="64" height="64"><defs><linearGradient id="a" x1="32" y1="56" x2="32" y2="8" gradientUnits="userSpaceOnUse"><stop offset="0" stop-color="#956ac8"/><stop offset="1" stop-color="#e9738a"/></linearGradient></defs><path d="M32 8a24 24 0 1 0 24 24A24.006 24.006 0 0 0 32 8zm20.49 16h-12c-.8-6-2.46-10.91-4.6-13.64A22.012 22.012 0 0 1 52.49 24zM10 32a22.015 22.015 0 0 1 .84-6h8.26a5.05 5.05 0 0 1 0-2h-7.59a22.012 22.012 0 0 1 16.6-13.64c-1.64 2.1-3 5.48-3.91 9.65a4.8 4.8 0 0 1 1.96.48C27.59 13.88 30.09 10 32 10c2.23 0 5.25 5.27 6.46 14H28.9a5.05 5.05 0 0 1 0 2h9.8a59.315 59.315 0 0 1 .3 6 59.315 59.315 0 0 1-.3 6H25.3a59.315 59.315 0 0 1-.3-6c0-.72.01-1.42.04-2.11A5.1 5.1 0 0 1 24 30a5.041 5.041 0 0 1-.96-.09C23.01 30.6 23 31.3 23 32c0 2.07.1 4.08.28 6H10.84a22.015 22.015 0 0 1-.84-6zm1.51 8h12c.8 6 2.46 10.91 4.6 13.64A22.012 22.012 0 0 1 11.51 40zM32 54c-2.23 0-5.25-5.27-6.46-14h12.92c-1.21 8.73-4.23 14-6.46 14zm3.89-.36c2.14-2.73 3.8-7.64 4.6-13.64h12a22.012 22.012 0 0 1-16.6 13.64zM40.72 38a64.396 64.396 0 0 0 0-12h12.44a21.849 21.849 0 0 1 0 12z" fill="url(#a)"/><path d="M24 17a8 8 0 1 0 8 8 8.011 8.011 0 0 0-8-8zm0 13a5 5 0 1 1 5-5 5 5 0 0 1-5 5z" fill="#ea7389" opacity=".3"/><circle cx="24" cy="25" r="3" fill="#e9738a"/></svg>