<svg xmlns="http://www.w3.org/2000/svg" width="102" height="80"><defs><linearGradient id="a" x1="51" y1="80" x2="51" y2="6" gradientUnits="userSpaceOnUse"><stop offset="0" stop-color="#3372d4"/><stop offset="1" stop-color="#4687ef"/></linearGradient></defs><path d="M38 0H12a4 4 0 0 0-4 4v2h34V4a4 4 0 0 0-4-4z" fill="#2355ad" fill-rule="evenodd"/><path d="M4 6h94a4 4 0 0 1 4 4v66a4 4 0 0 1-4 4H4a4 4 0 0 1-4-4V10a4 4 0 0 1 4-4z" fill="url(#a)"/><path d="M65.1 46.421L55.653 30h-9.306l9.442 16.421zm-17.247 1.368L43.2 56h17.926l4.653-8.211zm-2.737-15.736l-8.9 15.736L40.874 56l9.031-15.737-4.789-8.21z" fill="#fff"/></svg>