<svg xmlns="http://www.w3.org/2000/svg" width="102" height="80"><defs><linearGradient id="a" x1="51" y1="80" x2="51" y2="6" gradientUnits="userSpaceOnUse"><stop offset="0" stop-color="#006be6"/><stop offset="1" stop-color="#07f"/></linearGradient></defs><path d="M38 0H12a4 4 0 0 0-4 4v2h34V4a4 4 0 0 0-4-4z" fill="#0246b3" fill-rule="evenodd"/><path d="M4 6h94a4 4 0 0 1 4 4v66a4 4 0 0 1-4 4H4a4 4 0 0 1-4-4V10a4 4 0 0 1 4-4z" fill="url(#a)"/><path d="M67.7 34.093a16.127 16.127 0 0 0-9.838-3.552 16.313 16.313 0 0 0-9.383 2.267q-.322.207-.628.434a8.366 8.366 0 0 1 2.431-.4 2.408 2.408 0 0 1 2.579 2.19 2.407 2.407 0 0 1-2.565 2.2 30.307 30.307 0 0 1-5.509-.959 32.052 32.052 0 0 0-5.821-.6c-6.246 0-8.17 3.224-8.17 3.224l.534-.406a4.532 4.532 0 0 1 1.823-.911 1.349 1.349 0 0 1 .979 2.451c-2.346 1.461-6.165.862-8.09 6.191a3.534 3.534 0 0 1 1.144-1.389 9.406 9.406 0 0 1 4.277-1.52 15.211 15.211 0 0 1 6.213.306 5.094 5.094 0 0 1 3.177 1.84 1.787 1.787 0 0 1-.511 2.679 5.584 5.584 0 0 1-2.568.436h-.036a29.258 29.258 0 0 1 6.6 1.672c3.647 1.552 7.034 3.722 10.911 4.7a14.971 14.971 0 0 0 9.018-.33A12.116 12.116 0 0 0 67.7 34.093zm-26.853 11.3l-.014-.017-.036-.04.036.04.015.017zm25.11-2.793a4.992 4.992 0 0 1-3.888 5.893c-4.958 1.013-10.609-3.1-14.964-5.114 7.388.448 9.535-3.973 12.962-4.67a5 5 0 0 1 5.89 3.891z" fill="#fff"/></svg>