<svg xmlns="http://www.w3.org/2000/svg" width="102" height="80"><defs><linearGradient id="a" x1="51" y1="80" x2="51" y2="6" gradientUnits="userSpaceOnUse"><stop offset="0" stop-color="#003a9c"/><stop offset="1" stop-color="#094ab1"/></linearGradient></defs><path d="M38 0H12a4 4 0 0 0-4 4v2h34V4a4 4 0 0 0-4-4z" fill="#003370" fill-rule="evenodd"/><path d="M4 6h94a4 4 0 0 1 4 4v66a4 4 0 0 1-4 4H4a4 4 0 0 1-4-4V10a4 4 0 0 1 4-4z" fill="url(#a)"/><path d="M43.94 54.9c-2.465-.632-3.793-2.528-3.793-5.436a4.242 4.242 0 0 1 .316-1.96 5.408 5.408 0 0 1 4.046-2.971c.948-.19 1.265-.443 1.265-.885a5.7 5.7 0 0 1 .252-1.011 7.373 7.373 0 0 1 3.1-4.109 6.331 6.331 0 0 1 3.6-.822 5.93 5.93 0 0 1 5.057 2.212l.885.949.759-.253c3.793-1.328 7.649.948 7.965 4.678l.063.948.759.253a4.227 4.227 0 0 1 2.971 4.741 3.982 3.982 0 0 1-2.023 3.413l-.569.316h-12.01c-9.229.059-12.137.059-12.643-.063zm-9.04-1.712a5.964 5.964 0 0 1-3.667-3.034 4.061 4.061 0 0 1-.442-2.4 4.077 4.077 0 0 1 .379-2.276 5.428 5.428 0 0 1 3.6-2.908 1.4 1.4 0 0 0 .7-.316 2.648 2.648 0 0 0 .127-1.011 6.854 6.854 0 0 1 4.615-6.258 7.235 7.235 0 0 1 4.741.316c.505.189.442.252 1.454-1.138a9.411 9.411 0 0 1 2.844-2.339 7.4 7.4 0 0 1 3.6-.822 8.8 8.8 0 0 1 8.349 6.067c.379 1.138.379 1.517-.063 1.517a8.544 8.544 0 0 0-1.265.253l-.885.253-.821-.822a8.252 8.252 0 0 0-9.419-1.265 7.349 7.349 0 0 0-3.1 2.782 9.332 9.332 0 0 0-1.264 2.845c0 .252-.253.442-1.2.758a6.431 6.431 0 0 0-4.741 6.2 7.71 7.71 0 0 0 .632 3.1c.126.253.253.569.189.569a25.564 25.564 0 0 1-4.363-.071z" fill="#fff"/></svg>