<svg xmlns="http://www.w3.org/2000/svg" width="102" height="80"><defs><style>.e{opacity:.03;fill:#231f20}</style><linearGradient id="a" y1="45.5" x2="102" y2="45.5" gradientUnits="userSpaceOnUse"><stop offset="0" stop-color="#7553ba"/><stop offset="1" stop-color="#866abf"/></linearGradient></defs><path d="M0 11h102v65a4 4 0 0 1-4 4H4a4 4 0 0 1-4-4z" fill="url(#a)"/><path d="M16.5 23A7.5 7.5 0 1 1 9 30.5a7.508 7.508 0 0 1 7.5-7.5m0-5A12.5 12.5 0 1 0 29 30.5 12.5 12.5 0 0 0 16.5 18z" opacity=".05" fill="#fff"/><path d="M97.5 58a5.5 5.5 0 1 1-5.5 5.5 5.506 5.506 0 0 1 5.5-5.5m0-3a8.5 8.5 0 1 0 8.5 8.5 8.5 8.5 0 0 0-8.5-8.5z" opacity=".03" fill="#fff"/><path d="M21 26h60a3 3 0 0 1 3 3v51H18V29a3 3 0 0 1 3-3z" fill="#9270d8"/><path class="e" d="M81 20H21a9.01 9.01 0 0 0-9 9v51h78V29a9.01 9.01 0 0 0-9-9z"/><path class="e" d="M81 24H21a5.006 5.006 0 0 0-5 5v51h70V29a5.006 5.006 0 0 0-5-5z"/><path d="M18 66.97V80h66V54.03z" opacity=".2"/><path d="M18 67.97V80h66V55.03z" fill="#dedfe5"/><path d="M53 79h25v1H53zm0-3h25v1H53zm12.5-6h11a1.5 1.5 0 0 1 0 3h-11a1.5 1.5 0 0 1 0-3z" fill-rule="evenodd" fill="#c5c7cd"/><path d="M68.44 26L63 27.04v7l8-1.53V26zM63 35.04v7l8-1.53v-7zm0 8v7l8-1.53v-7zm0 8v7l8-1.53v-7z" fill="#805fc5" fill-rule="evenodd"/><path d="M24 51h25v1H24zm0-3h25v1H24zm0-3h10v1H24zm3-15a3 3 0 1 1-3 3 3 3 0 0 1 3-3z" fill="#b9a8dd" fill-rule="evenodd"/><path d="M4 0h94a4 4 0 0 1 4 4v7H0V4a4 4 0 0 1 4-4z" fill="#3b4149"/><path d="M28.5 4h61a1.5 1.5 0 0 1 0 3h-61a1.5 1.5 0 0 1 0-3z" fill="#676b71"/><circle cx="5.5" cy="5.5" r="1.5" fill="#ff737c"/><circle cx="10.5" cy="5.5" r="1.5" fill="#fdc466"/><circle cx="15.5" cy="5.5" r="1.5" fill="#2cd387"/></svg>